<svg width="340" height="332" viewBox="0 0 340 332" fill="none" xmlns="http://www.w3.org/2000/svg">
<g id="2013">
<path id="lichaam" d="M130.606 24.1855C147.01 -7.52477 192.361 -7.5247 208.766 24.1856L334.393 267.023C349.544 296.31 328.286 331.24 295.312 331.24H44.0589C11.085 331.24 -10.1723 296.31 4.97869 267.023L130.606 24.1855Z" fill="#FF0000"/>
<g id="ogen">
<g id="Group 21">
<circle id="Ellipse 2" cx="124.577" cy="136.98" r="15" transform="rotate(-120.934 124.577 136.98)" fill="white"/>
<circle id="Ellipse 5" cx="124.448" cy="137.495" r="9.375" transform="rotate(-120.934 124.448 137.495)" fill="black"/>
<circle id="Ellipse 6" cx="133.386" cy="140.737" r="3.75" transform="rotate(-120.934 133.386 140.737)" fill="white"/>
</g>
<g id="Group 22">
<circle id="Ellipse 2_2" cx="152.666" cy="89.6943" r="15" transform="rotate(-16.7937 152.666 89.6943)" fill="white"/>
<circle id="Ellipse 5_2" cx="152.415" cy="90.1615" r="9.375" transform="rotate(-16.7937 152.415 90.1615)" fill="black"/>
<circle id="Ellipse 6_2" cx="159.676" cy="93.4543" r="3.75" transform="rotate(-16.7937 159.676 93.4543)" fill="white"/>
</g>
</g>
<g id="mond">
<path id="Rectangle 10" d="M185.336 113.916C195.917 119.888 199.654 133.307 193.681 143.888C187.709 154.469 174.289 158.205 163.708 152.233L159.354 149.775C156.949 148.418 156.1 145.368 157.458 142.963L174.17 113.354C175.527 110.95 178.577 110.1 180.982 111.458L185.336 113.916Z" fill="black"/>
<ellipse id="Ellipse 13" cx="8.81156" cy="4.30793" rx="8.81156" ry="4.30793" transform="matrix(0.893902 -0.448262 -0.615766 -0.787929 174.346 153.644)" fill="white"/>
</g>
</g>
</svg>
