<svg width="169" height="655" viewBox="0 0 169 655" fill="none" xmlns="http://www.w3.org/2000/svg">
<rect width="169" height="655" rx="84.5" fill="#86D3FF"/>
<circle cx="33" cy="83" r="15" fill="white"/>
<circle cx="33.4822" cy="83.4819" r="9.375" transform="rotate(-165 33.4822 83.4819)" fill="black"/>
<circle cx="38.5925" cy="77.4072" r="3.75" transform="rotate(-165 38.5925 77.4072)" fill="white"/>
<circle cx="136" cy="82" r="13" fill="white"/>
<circle cx="135.551" cy="82.4176" r="8.125" transform="rotate(-75 135.551 82.4176)" fill="black"/>
<circle cx="141.942" cy="77.1018" r="3.25" transform="rotate(-75 141.942 77.1018)" fill="white"/>
<path d="M58 91.6667C58 85.7756 62.7756 81 68.6667 81H103.333C109.224 81 114 85.7756 114 91.6667C114 103.449 104.449 113 92.6667 113H79.3333C67.5513 113 58 103.449 58 91.6667Z" fill="black"/>
<ellipse cx="98.4082" cy="102.896" rx="10.5252" ry="4.5" transform="rotate(-27.8559 98.4082 102.896)" fill="white"/>
</svg>
