<svg width="169" height="655" viewBox="0 0 169 655" fill="none" xmlns="http://www.w3.org/2000/svg">
<g id="2014">
<rect id="lichaam" width="169" height="655" rx="84.5" fill="#000080"/>
<g id="mond">
<path id="Rectangle 10" d="M58 91.6667C58 85.7756 62.7756 81 68.6667 81H103.333C109.224 81 114 85.7756 114 91.6667C114 103.449 104.449 113 92.6667 113H79.3333C67.5513 113 58 103.449 58 91.6667Z" fill="black"/>
<ellipse id="Ellipse 13" cx="98.4082" cy="102.897" rx="10.5252" ry="4.5" transform="rotate(-27.8559 98.4082 102.897)" fill="white"/>
</g>
<g id="ogen">
<g id="Group 7">
<circle id="Ellipse 2" cx="33" cy="83" r="15" fill="white"/>
<g id="Group 13">
<circle id="Ellipse 5" cx="33.4822" cy="83.4819" r="9.375" transform="rotate(-165 33.4822 83.4819)" fill="black"/>
<circle id="Ellipse 6" cx="38.5925" cy="77.4072" r="3.75" transform="rotate(-165 38.5925 77.4072)" fill="white"/>
</g>
</g>
<g id="Group 8">
<circle id="Ellipse 2_2" cx="136" cy="82" r="13" fill="white"/>
<g id="Group 11">
<circle id="Ellipse 5_2" cx="135.551" cy="82.4178" r="8.125" transform="rotate(-75 135.551 82.4178)" fill="black"/>
<circle id="Ellipse 6_2" cx="141.942" cy="77.1018" r="3.25" transform="rotate(-75 141.942 77.1018)" fill="white"/>
</g>
</g>
</g>
</g>
</svg>
