<svg width="290" height="508" viewBox="0 0 290 508" fill="none" xmlns="http://www.w3.org/2000/svg">
<path fill-rule="evenodd" clip-rule="evenodd" d="M68 224.452C68 234.197 62.859 243.098 55.2113 249.137C21.5832 275.692 0 316.825 0 363C0 443.081 64.9187 508 145 508C225.081 508 290 443.081 290 363C290 311.426 263.074 266.141 222.514 240.436C216.212 236.442 212 229.697 212 222.236C212 215.952 215.023 210.113 219.704 205.92C243.823 184.315 259 152.93 259 118C259 52.8304 206.17 0 141 0C75.8304 0 23 52.8304 23 118C23 150.67 36.2765 180.239 57.7285 201.605C63.8746 207.727 68 215.778 68 224.452Z" fill="#EA5502"/>
<path d="M123 111.667C123 105.776 127.776 101 133.667 101H156.333C162.224 101 167 105.776 167 111.667C167 123.449 157.449 133 145.667 133H144.333C132.551 133 123 123.449 123 111.667Z" fill="black"/>
<ellipse cx="8.81156" cy="4.30793" rx="8.81156" ry="4.30793" transform="matrix(0.829763 -0.558116 0.383493 0.923544 145.786 123.836)" fill="white"/>
<circle cx="104" cy="98" r="14" fill="white"/>
<circle cx="104.45" cy="98.45" r="8.75" transform="rotate(-165 104.45 98.45)" fill="black"/>
<circle cx="109.22" cy="92.78" r="3.5" transform="rotate(-165 109.22 92.78)" fill="white"/>
<circle cx="187" cy="98" r="15" fill="white"/>
<circle cx="186.482" cy="98.482" r="9.375" transform="rotate(-75 186.482 98.482)" fill="black"/>
<circle cx="193.856" cy="92.3484" r="3.75" transform="rotate(-75 193.856 92.3484)" fill="white"/>
</svg>
