<svg width="339" height="593" viewBox="0 0 339 593" fill="none" xmlns="http://www.w3.org/2000/svg">
<g id="2016">
<path id="lichaam" fill-rule="evenodd" clip-rule="evenodd" d="M79.378 262.008C79.378 273.383 73.3767 283.774 64.4494 290.824C25.1945 321.821 0 369.837 0 423.738C0 517.219 75.7811 593 169.262 593C262.743 593 338.524 517.219 338.524 423.738C338.524 363.535 307.093 310.673 259.745 280.666C252.389 276.004 247.472 268.13 247.472 259.421C247.472 252.086 251.001 245.27 256.465 240.376C284.62 215.155 302.337 178.518 302.337 137.744C302.337 61.6701 240.666 0 164.593 0C88.5186 0 26.8484 61.6701 26.8484 137.744C26.8484 175.88 42.3464 210.397 67.3878 235.339C74.5622 242.485 79.378 251.882 79.378 262.008Z" fill="#FF69B4"/>
<g id="mond">
<path id="Rectangle 10" d="M147 111.667C147 105.776 151.776 101 157.667 101H180.333C186.224 101 191 105.776 191 111.667C191 123.449 181.449 133 169.667 133H168.333C156.551 133 147 123.449 147 111.667Z" fill="black"/>
<ellipse id="Ellipse 13" cx="8.81156" cy="4.30793" rx="8.81156" ry="4.30793" transform="matrix(0.829763 -0.558116 0.383493 0.923544 169.786 123.836)" fill="white"/>
</g>
<g id="ogen">
<g id="Group 15">
<circle id="Ellipse 2" cx="128" cy="98" r="14" fill="white"/>
<g id="Group 13">
<circle id="Ellipse 5" cx="128.45" cy="98.45" r="8.75" transform="rotate(-165 128.45 98.45)" fill="black"/>
<circle id="Ellipse 6" cx="133.22" cy="92.7803" r="3.5" transform="rotate(-165 133.22 92.7803)" fill="white"/>
</g>
</g>
<g id="Group 16">
<circle id="Ellipse 2_2" cx="211" cy="98" r="15" fill="white"/>
<g id="Group 11">
<circle id="Ellipse 5_2" cx="210.482" cy="98.4822" r="9.375" transform="rotate(-75 210.482 98.4822)" fill="black"/>
<circle id="Ellipse 6_2" cx="217.856" cy="92.3484" r="3.75" transform="rotate(-75 217.856 92.3484)" fill="white"/>
</g>
</g>
</g>
</g>
</svg>
