<svg width="260" height="374" viewBox="0 0 260 374" fill="none" xmlns="http://www.w3.org/2000/svg">
<g id="Group 12">
<g id="lichaam">
<path id="Union" fill-rule="evenodd" clip-rule="evenodd" d="M259.48 146.615C259.824 142.624 260 138.583 260 134.5C260 60.2177 201.797 0 130 0C58.203 0 0 60.2177 0 134.5C0 138.583 0.175866 142.624 0.52019 146.615C0.177988 148.692 0 150.825 0 153V335C0 356.539 17.4609 374 39 374H221C242.539 374 260 356.539 260 335V153C260 150.825 259.822 148.692 259.48 146.615Z" fill="#F5D115"/>
</g>
<g id="ogen">
<g id="Group 4">
<circle id="Ellipse 2" cx="49.125" cy="82.125" r="13.125" fill="white"/>
<circle id="Ellipse 5" cx="47.4844" cy="82.125" r="8.20311" fill="black"/>
<circle id="Ellipse 6" cx="54.0469" cy="87.0469" r="3.28124" fill="white"/>
</g>
<g id="Group">
<circle id="Ellipse 2_2" cx="145" cy="80" r="15" fill="white"/>
<circle id="Ellipse 5_2" cx="143.125" cy="80" r="9.375" fill="black"/>
<circle id="Ellipse 6_2" cx="150.625" cy="85.625" r="3.75" fill="white"/>
</g>
</g>
<g id="mond">
<path id="Rectangle 8" d="M70 102.692C70 97.3394 74.3394 93 79.6923 93H116.308C121.661 93 126 97.3394 126 102.692V107C126 122.464 113.464 135 98 135C82.536 135 70 122.464 70 107V102.692Z" fill="black"/>
<ellipse id="Ellipse 12" cx="105.408" cy="122.897" rx="10.5252" ry="4.5" transform="rotate(-27.8559 105.408 122.897)" fill="white"/>
</g>
</g>
</svg>
