<svg width="260" height="374" viewBox="0 0 260 374" fill="none" xmlns="http://www.w3.org/2000/svg">
<rect y="114" width="260" height="260" rx="39" fill="#4343FF"/>
<ellipse cx="130" cy="134.5" rx="130" ry="134.5" fill="#4343FF"/>
<circle cx="49.125" cy="82.125" r="13.125" fill="white"/>
<circle cx="47.4844" cy="82.125" r="8.20311" fill="black"/>
<circle cx="54.0469" cy="87.0469" r="3.28124" fill="white"/>
<circle cx="145" cy="80" r="15" fill="white"/>
<circle cx="143.125" cy="80" r="9.375" fill="black"/>
<circle cx="150.625" cy="85.625" r="3.75" fill="white"/>
<path d="M70 102.692C70 97.3394 74.3394 93 79.6923 93H116.308C121.661 93 126 97.3394 126 102.692V107C126 122.464 113.464 135 98 135C82.536 135 70 122.464 70 107V102.692Z" fill="black"/>
<ellipse cx="105.408" cy="122.896" rx="10.5252" ry="4.5" transform="rotate(-27.8559 105.408 122.896)" fill="white"/>
</svg>
