<svg width="613" height="542" viewBox="0 0 613 542" fill="none" xmlns="http://www.w3.org/2000/svg">
<g id="2018">
<path id="lichaam" d="M266.642 22.9661C284.357 -7.65538 328.643 -7.65535 346.358 22.9661L606.765 473.102C624.48 503.723 602.336 542 566.907 542H46.0929C10.6634 542 -11.48 503.723 6.23476 473.102L266.642 22.9661Z" fill="#FF6347"/>
<g id="mond">
<path id="Rectangle 10" d="M338.564 151.78C338.564 165.44 327.49 176.514 313.83 176.514C300.17 176.514 289.096 165.44 289.096 151.78L289.096 146.158C289.096 143.054 291.612 140.537 294.717 140.537L332.943 140.537C336.048 140.537 338.564 143.054 338.564 146.158L338.564 151.78Z" fill="black"/>
<path id="Ellipse 13" d="M311.891 169.559C312.917 167.089 310.068 162.611 305.528 159.557C300.988 156.503 296.476 156.031 295.45 158.501C294.424 160.971 297.273 165.45 301.813 168.503C306.353 171.557 310.865 172.03 311.891 169.559Z" fill="white"/>
</g>
<g id="ogen">
<g id="Group 15">
<path id="Ellipse 2" d="M283.475 137.164C283.475 145.857 276.428 152.904 267.735 152.904C259.042 152.904 251.995 145.857 251.995 137.164C251.995 128.471 259.042 121.424 267.735 121.424C276.428 121.424 283.475 128.471 283.475 137.164Z" fill="white"/>
<g id="Group 13">
<path id="Ellipse 5" d="M258.738 135.124C260.144 129.876 265.538 126.762 270.786 128.168C276.034 129.574 279.149 134.968 277.742 140.216C276.336 145.464 270.942 148.579 265.694 147.173C260.446 145.766 257.332 140.372 258.738 135.124Z" fill="black"/>
<path id="Ellipse 6" d="M269.803 130.277C270.366 128.178 272.523 126.932 274.623 127.495C276.722 128.057 277.968 130.215 277.405 132.314C276.843 134.413 274.685 135.659 272.586 135.097C270.487 134.534 269.241 132.377 269.803 130.277Z" fill="white"/>
</g>
</g>
<g id="Group 16">
<path id="Ellipse 2_2" d="M377.915 137.164C377.915 146.478 370.365 154.029 361.051 154.029C351.737 154.029 344.187 146.478 344.187 137.164C344.187 127.85 351.737 120.3 361.051 120.3C370.365 120.3 377.915 127.85 377.915 137.164Z" fill="white"/>
<g id="Group 11">
<path id="Ellipse 5_2" d="M363.197 127.525C368.82 129.032 372.156 134.812 370.65 140.435C369.143 146.057 363.364 149.394 357.741 147.888C352.118 146.381 348.781 140.601 350.288 134.979C351.794 129.356 357.574 126.019 363.197 127.525Z" fill="black"/>
<path id="Ellipse 6_2" d="M369.851 126.738C372.1 127.34 373.434 129.652 372.832 131.901C372.229 134.151 369.917 135.485 367.668 134.883C365.419 134.28 364.084 131.968 364.687 129.719C365.29 127.47 367.601 126.135 369.851 126.738Z" fill="white"/>
</g>
</g>
</g>
</g>
</svg>
