<svg width="333" height="417" viewBox="0 0 333 417" fill="none" xmlns="http://www.w3.org/2000/svg">
<rect width="333" height="417" rx="66" fill="#EDEDED"/>
<path d="M95.8389 110.345C95.8389 102.876 101.894 96.8213 109.363 96.8213H138.101C145.57 96.8213 151.625 102.876 151.625 110.345C151.625 125.283 139.515 137.393 124.577 137.393H122.886C107.948 137.393 95.8389 125.283 95.8389 110.345Z" fill="black"/>
<ellipse cx="11.1718" cy="5.46184" rx="11.1718" ry="5.46184" transform="matrix(0.829763 -0.558116 0.383493 0.923544 124.728 125.774)" fill="white"/>
<circle cx="71.75" cy="93.0178" r="17.75" fill="white"/>
<circle cx="72.3206" cy="93.5883" r="11.0938" transform="rotate(-165 72.3206 93.5883)" fill="black"/>
<circle cx="78.3681" cy="86.3997" r="4.4375" transform="rotate(-165 78.3681 86.3997)" fill="white"/>
<circle cx="176.982" cy="93.0179" r="19.0179" fill="white"/>
<circle cx="176.325" cy="93.6292" r="11.8862" transform="rotate(-75 176.325 93.6292)" fill="black"/>
<circle cx="185.675" cy="85.8524" r="4.75446" transform="rotate(-75 185.675 85.8524)" fill="white"/>
</svg>
