<svg width="19" height="19" viewBox="0 0 19 19" fill="none" xmlns="http://www.w3.org/2000/svg">
<path d="M11.4831 9.25089L11.2348 9.49865L11.4831 9.74641L18.2849 16.5333L18.2856 16.534C18.4011 16.6486 18.4927 16.7848 18.5553 16.935C18.6178 17.0851 18.65 17.2461 18.65 17.4088C18.65 17.5714 18.6178 17.7325 18.5553 17.8826C18.4927 18.0328 18.4011 18.169 18.2856 18.2835L18.2836 18.2856C18.1691 18.4011 18.0328 18.4927 17.8827 18.5553L18.0173 18.8783L17.8827 18.5553C17.7326 18.6178 17.5716 18.65 17.409 18.65C17.2464 18.65 17.0854 18.6178 16.9353 18.5553L16.8007 18.8783L16.9353 18.5553C16.7852 18.4927 16.649 18.4011 16.5345 18.2856L16.5337 18.2849L9.74779 11.4821L9.5 11.2337L9.25221 11.4821L2.46626 18.2849L2.46554 18.2856C2.35102 18.4011 2.21478 18.4927 2.06469 18.5553L2.1993 18.8783L2.06468 18.5553C1.91458 18.6178 1.75358 18.65 1.59098 18.65C1.42837 18.65 1.26737 18.6178 1.11727 18.5553L0.982651 18.8783L1.11727 18.5553C0.967168 18.4927 0.830929 18.4011 0.716421 18.2856L0.714383 18.2836C0.598925 18.169 0.507282 18.0328 0.444742 17.8826C0.3822 17.7325 0.35 17.5714 0.35 17.4088C0.35 17.2461 0.3822 17.0851 0.444742 16.935C0.507282 16.7848 0.598925 16.6486 0.714384 16.534L0.715112 16.5333L7.51687 9.74641L7.76517 9.49865L7.51687 9.25089L0.7154 2.46427C0.715371 2.46424 0.715342 2.46422 0.715313 2.46419C0.48314 2.23193 0.352699 1.91695 0.352699 1.5885C0.3527 1.26002 0.483173 0.944992 0.7154 0.712732C0.947626 0.480473 1.26258 0.35 1.59098 0.35C1.91929 0.35 2.23418 0.480411 2.46639 0.712567C2.46644 0.712622 2.4665 0.712677 2.46655 0.712732L9.25221 7.51517L9.5 7.76358L9.74779 7.51517L16.5334 0.712731C16.5335 0.712648 16.5337 0.712527 16.5337 0.712443C16.7659 0.480341 17.0807 0.35 17.409 0.35C17.7374 0.35 18.0524 0.480472 18.2846 0.712731C18.5168 0.944992 18.6473 1.26002 18.6473 1.5885C18.6473 1.91688 18.5169 2.23179 18.2848 2.46403C18.2848 2.46411 18.2847 2.46419 18.2846 2.46427L11.4831 9.25089Z" fill="white" stroke="black" stroke-width="0.7"/>
</svg>
