<svg width="35" height="20" viewBox="0 0 35 20" fill="none" xmlns="http://www.w3.org/2000/svg">
<path d="M10.1094 10.3143C10.1094 7.66351 12.2582 5.51465 14.909 5.51465H18.7895C21.4403 5.51465 23.5892 7.66351 23.5892 10.3143V13.1736C23.5892 16.896 20.5716 19.9135 16.8493 19.9135C13.1269 19.9135 10.1094 16.896 10.1094 13.1736V10.3143Z" fill="black"/>
<ellipse cx="3.14867" cy="1.86038" rx="3.14867" ry="1.86038" transform="matrix(0.711393 -0.702794 0.272054 0.962282 17.0908 15.79)" fill="white"/>
<circle cx="4.28902" cy="4.59566" r="4.28902" fill="white"/>
<circle cx="4.42677" cy="4.7335" r="2.68064" transform="rotate(-165 4.42677 4.7335)" fill="black"/>
<circle cx="5.88829" cy="2.99633" r="1.07226" transform="rotate(-165 5.88829 2.99633)" fill="white"/>
<circle cx="29.7165" cy="4.59538" r="4.59538" fill="white"/>
<circle cx="29.5576" cy="4.74255" r="2.87211" transform="rotate(-75 29.5576 4.74255)" fill="black"/>
<circle cx="31.8172" cy="2.8644" r="1.14885" transform="rotate(-75 31.8172 2.8644)" fill="white"/>
</svg>
